<svg xmlns="http://www.w3.org/2000/svg" xmlns:xlink="http://www.w3.org/1999/xlink" xmlns:lucid="lucid" width="2009" height="816"><g transform="translate(8 8)" lucid:page-tab-id="0_0"><path d="M0 0h1760v1360H0z" fill="#fff"/><path d="M1027 204c0-4.42 3.58-8 8-8h380c4.42 0 8 3.58 8 8v216c0 4.42-3.58 8-8 8h-380c-4.42 0-8-3.58-8-8z" fill="#fff"/><path d="M1027 196h396v40h-396z" fill="#ccc"/><path d="M1027 204c0-4.42 3.58-8 8-8h380c4.42 0 8 3.58 8 8v216c0 4.42-3.58 8-8 8h-380c-4.42 0-8-3.58-8-8zM1027 236h396M1071 236v192M1223.3 236v192" stroke="#333" fill="none"/><use xlink:href="#a" transform="matrix(1,0,0,1,1037,196) translate(152.1 23.6)"/><use xlink:href="#b" transform="matrix(1,0,0,1,1032,238.5) translate(5 17.1)"/><use xlink:href="#c" transform="matrix(1,0,0,1,1076,238.5) translate(0 17.1)"/><use xlink:href="#d" transform="matrix(1,0,0,1,1228.3,238.5) translate(0 17.1)"/><use xlink:href="#e" transform="matrix(1,0,0,1,1228.3,238.5) translate(79.9 17.1)"/><use xlink:href="#f" transform="matrix(1,0,0,1,1032,270.5) translate(5.524999999999999 17.1)"/><use xlink:href="#g" transform="matrix(1,0,0,1,1076,270.5) translate(0 17.1)"/><use xlink:href="#h" transform="matrix(1,0,0,1,1228.3,270.5) translate(0 17.1)"/><use xlink:href="#i" transform="matrix(1,0,0,1,1076,302.5) translate(0 17.1)"/><use xlink:href="#d" transform="matrix(1,0,0,1,1228.3,302.5) translate(0 17.1)"/><use xlink:href="#j" transform="matrix(1,0,0,1,1228.3,302.5) translate(79.9 17.1)"/><use xlink:href="#k" transform="matrix(1,0,0,1,1076,334.5) translate(0 17.1)"/><use xlink:href="#h" transform="matrix(1,0,0,1,1228.3,334.5) translate(0 17.1)"/><use xlink:href="#l" transform="matrix(1,0,0,1,1076,366.5) translate(0 17.1)"/><use xlink:href="#h" transform="matrix(1,0,0,1,1228.3,366.5) translate(0 17.1)"/><use xlink:href="#m" transform="matrix(1,0,0,1,1076,398.5) translate(0 17.1)"/><use xlink:href="#h" transform="matrix(1,0,0,1,1228.3,398.5) translate(0 17.1)"/><path d="M1616 332c0-4.42 3.58-8 8-8h349c4.42 0 8 3.58 8 8v88c0 4.42-3.58 8-8 8h-349c-4.42 0-8-3.58-8-8z" fill="#fff"/><path d="M1616 324h365v40h-365z" fill="#ccc"/><path d="M1616 332c0-4.42 3.58-8 8-8h349c4.42 0 8 3.58 8 8v88c0 4.42-3.58 8-8 8h-349c-4.42 0-8-3.58-8-8zM1616 364h365M1660 364v64M1781.3 364v64" stroke="#333" fill="none"/><use xlink:href="#n" transform="matrix(1,0,0,1,1626,324) translate(127.57499999999999 23.6)"/><use xlink:href="#b" transform="matrix(1,0,0,1,1621,366.5) translate(5 17.1)"/><use xlink:href="#o" transform="matrix(1,0,0,1,1665,366.5) translate(0 17.1)"/><use xlink:href="#h" transform="matrix(1,0,0,1,1786.3,366.5) translate(0 17.1)"/><use xlink:href="#p" transform="matrix(1,0,0,1,1665,398.5) translate(0 17.1)"/><use xlink:href="#d" transform="matrix(1,0,0,1,1786.3,398.5) translate(0 17.1)"/><use xlink:href="#j" transform="matrix(1,0,0,1,1786.3,398.5) translate(79.9 17.1)"/><path d="M1576 628c0-4.42 3.58-8 8-8h318c4.42 0 8 3.58 8 8v88c0 4.42-3.58 8-8 8h-318c-4.42 0-8-3.58-8-8z" fill="#fff"/><path d="M1576 620h334v40h-334z" fill="#ccc"/><path d="M1576 628c0-4.42 3.58-8 8-8h318c4.42 0 8 3.58 8 8v88c0 4.42-3.58 8-8 8h-318c-4.42 0-8-3.58-8-8zM1576 660h334M1647.95 660v64M1720.3 660v64" stroke="#333" fill="none"/><use xlink:href="#q" transform="matrix(1,0,0,1,1586,620) translate(93.125 23.6)"/><use xlink:href="#r" transform="matrix(1,0,0,1,1581,662.5) translate(5.024999999999999 17.1)"/><use xlink:href="#c" transform="matrix(1,0,0,1,1652.95,662.5) translate(0 17.1)"/><use xlink:href="#d" transform="matrix(1,0,0,1,1725.3,662.5) translate(0 17.1)"/><use xlink:href="#e" transform="matrix(1,0,0,1,1725.3,662.5) translate(79.9 17.1)"/><use xlink:href="#r" transform="matrix(1,0,0,1,1581,694.5) translate(5.024999999999999 17.1)"/><use xlink:href="#o" transform="matrix(1,0,0,1,1652.95,694.5) translate(0 17.1)"/><use xlink:href="#h" transform="matrix(1,0,0,1,1725.3,694.5) translate(0 17.1)"/><path d="M1798.5 448.5v75.15c0 .2.16.35.35.35.2 0 .35.16.35.35v75.74" stroke="#333" fill="none"/><path d="M1788.5 448.5h20M1798.5 428.5v20M1789.2 619.28l10-20 10 20M1799.2 619.28v-20" stroke="#333" fill="#fff"/><path d="M1357.57 448.5V472c0 6.63 5.37 12 12 12h305.23c6.63 0 12 5.37 12 12v104.1" stroke="#333" fill="none"/><path d="M1347.57 448.5h20M1357.57 428.5v20M1676.8 619.28l10-20 10 20M1686.8 619.28v-20" stroke="#333" fill="#fff"/><path d="M1030 20c0-4.42 3.58-8 8-8h375c4.42 0 8 3.58 8 8v88c0 4.42-3.58 8-8 8h-375c-4.42 0-8-3.58-8-8z" fill="#fff"/><path d="M1030 12h391v40h-391z" fill="#ccc"/><path d="M1030 20c0-4.42 3.58-8 8-8h375c4.42 0 8 3.58 8 8v88c0 4.42-3.58 8-8 8h-375c-4.42 0-8-3.58-8-8zM1030 52h391M1074 52v64M1221.3 52v64" stroke="#333" fill="none"/><use xlink:href="#s" transform="matrix(1,0,0,1,1040,12) translate(127.6 23.6)"/><use xlink:href="#b" transform="matrix(1,0,0,1,1035,54.5) translate(5 17.1)"/><use xlink:href="#g" transform="matrix(1,0,0,1,1079,54.5) translate(0 17.1)"/><use xlink:href="#h" transform="matrix(1,0,0,1,1226.3,54.5) translate(0 17.1)"/><use xlink:href="#t" transform="matrix(1,0,0,1,1079,86.5) translate(0 17.1)"/><use xlink:href="#d" transform="matrix(1,0,0,1,1226.3,86.5) translate(0 17.1)"/><use xlink:href="#j" transform="matrix(1,0,0,1,1226.3,86.5) translate(79.9 17.1)"/><path d="M1225.5 136.5v19.25c0 .14-.1.25-.25.25-.14 0-.25.1-.25.25v19.84" stroke="#333" fill="none"/><path d="M1215.5 136.5h20M1225.5 116.5v20M1215 195.28l10-20 10 20M1225 195.28v-20" stroke="#333" fill="#fff"/><path d="M1090 628c0-4.42 3.58-8 8-8h390c4.42 0 8 3.58 8 8v152c0 4.42-3.58 8-8 8h-390c-4.42 0-8-3.58-8-8z" fill="#fff"/><path d="M1090 620h406v40h-406z" fill="#ccc"/><path d="M1090 628c0-4.42 3.58-8 8-8h390c4.42 0 8 3.58 8 8v152c0 4.42-3.58 8-8 8h-390c-4.42 0-8-3.58-8-8zM1090 660h406M1161.95 660v128M1306.3 660v128" stroke="#333" fill="none"/><use xlink:href="#u" transform="matrix(1,0,0,1,1100,620) translate(139.575 23.6)"/><use xlink:href="#r" transform="matrix(1,0,0,1,1095,662.5) translate(5.024999999999999 17.1)"/><use xlink:href="#v" transform="matrix(1,0,0,1,1166.95,662.5) translate(0 17.1)"/><use xlink:href="#d" transform="matrix(1,0,0,1,1311.3,662.5) translate(0 17.1)"/><use xlink:href="#e" transform="matrix(1,0,0,1,1311.3,662.5) translate(79.9 17.1)"/><use xlink:href="#r" transform="matrix(1,0,0,1,1095,694.5) translate(5.024999999999999 17.1)"/><use xlink:href="#w" transform="matrix(1,0,0,1,1166.95,694.5) translate(0 17.1)"/><use xlink:href="#d" transform="matrix(1,0,0,1,1311.3,694.5) translate(0 17.1)"/><use xlink:href="#e" transform="matrix(1,0,0,1,1311.3,694.5) translate(79.9 17.1)"/><use xlink:href="#x" transform="matrix(1,0,0,1,1166.95,726.5) translate(0 17.1)"/><use xlink:href="#h" transform="matrix(1,0,0,1,1311.3,726.5) translate(0 17.1)"/><use xlink:href="#y" transform="matrix(1,0,0,1,1166.95,758.5) translate(0 17.1)"/><use xlink:href="#h" transform="matrix(1,0,0,1,1311.3,758.5) translate(0 17.1)"/><path d="M1225 448.5v75.47l-.03.03c-.02 0-.04.02-.04.03v76.06" stroke="#333" fill="none"/><path d="M1215 448.5h20M1225 428.5v20M1214.93 619.28l10-20 10 20M1224.93 619.28v-20" stroke="#333" fill="#fff"/><path d="M1291.28 448.5V512c0 6.63 5.38 12 12 12h45.8c6.62 0 12 5.37 12 12v64.1" stroke="#333" fill="none"/><path d="M1281.28 448.5h20M1291.28 428.5v20M1351.07 619.28l10-20 10 20M1361.07 619.28v-20" stroke="#333" fill="#fff"/><path d="M162 628c0-4.42 3.58-8 8-8h330c4.42 0 8 3.58 8 8v120c0 4.42-3.58 8-8 8H170c-4.42 0-8-3.58-8-8z" fill="#fff"/><path d="M162 628c0-4.42 3.58-8 8-8h330c4.42 0 8 3.58 8 8v120c0 4.42-3.58 8-8 8H170c-4.42 0-8-3.58-8-8zM162 660h346M204.95 660v96M318.3 660v96" stroke="#333" fill="none"/><use xlink:href="#z" transform="matrix(1,0,0,1,172,620) translate(107.64999999999999 23.6)"/><use xlink:href="#f" transform="matrix(1,0,0,1,167,662.5) translate(5.024999999999999 17.1)"/><use xlink:href="#c" transform="matrix(1,0,0,1,209.95,662.5) translate(0 17.1)"/><use xlink:href="#d" transform="matrix(1,0,0,1,323.29999999999995,662.5) translate(0 17.1)"/><use xlink:href="#e" transform="matrix(1,0,0,1,323.29999999999995,662.5) translate(79.9 17.1)"/><use xlink:href="#f" transform="matrix(1,0,0,1,167,694.5) translate(5.024999999999999 17.1)"/><use xlink:href="#A" transform="matrix(1,0,0,1,209.95,694.5) translate(0 17.1)"/><use xlink:href="#d" transform="matrix(1,0,0,1,323.29999999999995,694.5) translate(0 17.1)"/><use xlink:href="#e" transform="matrix(1,0,0,1,323.29999999999995,694.5) translate(79.9 17.1)"/><use xlink:href="#f" transform="matrix(1,0,0,1,167,726.5) translate(5.024999999999999 17.1)"/><use xlink:href="#B" transform="matrix(1,0,0,1,209.95,726.5) translate(0 17.1)"/><use xlink:href="#h" transform="matrix(1,0,0,1,323.29999999999995,726.5) translate(0 17.1)"/><path d="M1092.43 448.5V512c0 6.63-5.37 12-12 12h-646.3c-6.62 0-12 5.37-12 12v64.1" stroke="#333" fill="none"/><path d="M1082.43 448.5h20M1092.43 428.5v20M412.14 619.28l10-20 10 20M422.14 619.28v-20" stroke="#333" fill="#fff"/><path d="M480 268c0-4.42 3.58-8 8-8h358c4.42 0 8 3.58 8 8v152c0 4.42-3.58 8-8 8H488c-4.42 0-8-3.58-8-8z" fill="#fff"/><path d="M480 260h374v40H480z" fill="#ccc"/><path d="M480 268c0-4.42 3.58-8 8-8h358c4.42 0 8 3.58 8 8v152c0 4.42-3.58 8-8 8H488c-4.42 0-8-3.58-8-8zM480 300h374M524 300v128M654.3 300v128" stroke="#333" fill="none"/><use xlink:href="#C" transform="matrix(1,0,0,1,490,260) translate(127.57499999999999 23.6)"/><use xlink:href="#b" transform="matrix(1,0,0,1,485,302.5) translate(5 17.1)"/><use xlink:href="#A" transform="matrix(1,0,0,1,529,302.5) translate(0 17.1)"/><use xlink:href="#d" transform="matrix(1,0,0,1,659.3,302.5) translate(0 17.1)"/><use xlink:href="#e" transform="matrix(1,0,0,1,659.3,302.5) translate(79.9 17.1)"/><use xlink:href="#D" transform="matrix(1,0,0,1,529,334.5) translate(0 17.1)"/><use xlink:href="#d" transform="matrix(1,0,0,1,659.3,334.5) translate(0 17.1)"/><use xlink:href="#j" transform="matrix(1,0,0,1,659.3,334.5) translate(79.9 17.1)"/><use xlink:href="#E" transform="matrix(1,0,0,1,529,366.5) translate(0 17.1)"/><use xlink:href="#h" transform="matrix(1,0,0,1,659.3,366.5) translate(0 17.1)"/><use xlink:href="#F" transform="matrix(1,0,0,1,529,398.5) translate(0 17.1)"/><use xlink:href="#h" transform="matrix(1,0,0,1,659.3,398.5) translate(0 17.1)"/><path d="M604.3 448.5V472c0 6.63-5.38 12-12 12H347c-6.63 0-12 5.37-12 12v104.1" stroke="#333" fill="none"/><path d="M594.3 448.5h20M604.3 428.5v20M325 619.28l10-20 10 20M335 619.28v-20" stroke="#333" fill="#fff"/><path d="M12 332c0-4.42 3.58-8 8-8h372c4.42 0 8 3.58 8 8v88c0 4.42-3.58 8-8 8H20c-4.42 0-8-3.58-8-8z" fill="#fff"/><path d="M12 324h388v40H12z" fill="#ccc"/><path d="M12 332c0-4.42 3.58-8 8-8h372c4.42 0 8 3.58 8 8v88c0 4.42-3.58 8-8 8H20c-4.42 0-8-3.58-8-8zM12 364h388M56 364v64M200.3 364v64" stroke="#333" fill="none"/><use xlink:href="#G" transform="matrix(1,0,0,1,22,324) translate(89.175 23.6)"/><use xlink:href="#b" transform="matrix(1,0,0,1,17,366.5) translate(5 17.1)"/><use xlink:href="#B" transform="matrix(1,0,0,1,61,366.5) translate(0 17.1)"/><use xlink:href="#h" transform="matrix(1,0,0,1,205.29999999999998,366.5) translate(0 17.1)"/><use xlink:href="#H" transform="matrix(1,0,0,1,61,398.5) translate(0 17.1)"/><use xlink:href="#d" transform="matrix(1,0,0,1,205.29999999999998,398.5) translate(0 17.1)"/><use xlink:href="#j" transform="matrix(1,0,0,1,205.29999999999998,398.5) translate(79.9 17.1)"/><path d="M206 448.5V472c0 6.63 5.37 12 12 12h17.86c6.63 0 12 5.37 12 12v104.1" stroke="#333" fill="none"/><path d="M196 448.5h20M206 428.5v20M237.86 619.28l10-20 10 20M247.86 619.28v-20" stroke="#333" fill="#fff"/><path d="M588 628c0-4.42 3.58-8 8-8h406c4.42 0 8 3.58 8 8v120c0 4.42-3.58 8-8 8H596c-4.42 0-8-3.58-8-8z" fill="#fff"/><path d="M588 620h422v40H588z" fill="#ccc"/><path d="M588 628c0-4.42 3.58-8 8-8h406c4.42 0 8 3.58 8 8v120c0 4.42-3.58 8-8 8H596c-4.42 0-8-3.58-8-8zM588 660h422M659.95 660v96M810.3 660v96" stroke="#333" fill="none"/><use xlink:href="#I" transform="matrix(1,0,0,1,598,620) translate(141.6 23.6)"/><use xlink:href="#r" transform="matrix(1,0,0,1,593,662.5) translate(5.024999999999999 17.1)"/><use xlink:href="#c" transform="matrix(1,0,0,1,664.95,662.5) translate(0 17.1)"/><use xlink:href="#d" transform="matrix(1,0,0,1,815.3,662.5) translate(0 17.1)"/><use xlink:href="#e" transform="matrix(1,0,0,1,815.3,662.5) translate(79.9 17.1)"/><use xlink:href="#r" transform="matrix(1,0,0,1,593,694.5) translate(5.024999999999999 17.1)"/><use xlink:href="#A" transform="matrix(1,0,0,1,664.95,694.5) translate(0 17.1)"/><use xlink:href="#d" transform="matrix(1,0,0,1,815.3,694.5) translate(0 17.1)"/><use xlink:href="#e" transform="matrix(1,0,0,1,815.3,694.5) translate(79.9 17.1)"/><g><use xlink:href="#J" transform="matrix(1,0,0,1,664.95,726.5) translate(0 17.1)"/></g><g><use xlink:href="#d" transform="matrix(1,0,0,1,815.3,726.5) translate(0 17.1)"/><use xlink:href="#j" transform="matrix(1,0,0,1,815.3,726.5) translate(79.9 17.1)"/></g><path d="M729.7 448.5v74.72c0 .43-.34.78-.77.78s-.78.35-.78.78v75.3" stroke="#333" fill="none"/><path d="M719.7 448.5h20M729.7 428.5v20M718.15 619.28l10-20 10 20M728.15 619.28v-20" stroke="#333" fill="#fff"/><path d="M1158.72 448.5V552c0 6.63-5.38 12-12 12H881.85c-6.63 0-12 5.37-12 12v24.1" stroke="#333" fill="none"/><path d="M1148.72 448.5h20M1158.72 428.5v20M859.85 619.28l10-20 10 20M869.85 619.28v-20" stroke="#333" fill="#fff"/><defs><path d="M24-231v-30h32v30H24zM24 0v-190h32V0H24" id="K"/><path d="M210-169c-67 3-38 105-44 169h-31v-121c0-29-5-50-35-48C34-165 62-65 56 0H25l-1-190h30c1 10-1 24 2 32 10-44 99-50 107 0 11-21 27-35 58-36 85-2 47 119 55 194h-31v-121c0-29-5-49-35-48" id="L"/><path d="M85-194c31 0 48 13 60 33l-1-100h32l1 261h-30c-2-10 0-23-3-31C134-8 116 4 85 4 32 4 16-35 15-94c0-66 23-100 70-100zm9 24c-40 0-46 34-46 75 0 40 6 74 45 74 42 0 51-32 51-76 0-42-9-74-50-73" id="M"/><path d="M115-194c53 0 69 39 70 98 0 66-23 100-70 100C84 3 66-7 56-30L54 0H23l1-261h32v101c10-23 28-34 59-34zm-8 174c40 0 45-34 45-75 0-40-5-75-45-74-42 0-51 32-51 76 0 43 10 73 51 73" id="N"/><path d="M33 0v-38h34V0H33" id="O"/><path d="M59-47c-2 24 18 29 38 22v24C64 9 27 4 27-40v-127H5v-23h24l9-43h21v43h35v23H59v120" id="P"/><path d="M24 0v-261h32V0H24" id="Q"/><path d="M100-194c63 0 86 42 84 106H49c0 40 14 67 53 68 26 1 43-12 49-29l28 8c-11 28-37 45-77 45C44 4 14-33 15-96c1-61 26-98 85-98zm52 81c6-60-76-77-97-28-3 7-6 17-6 28h103" id="R"/><g id="a"><use transform="matrix(0.05,0,0,0.05,0,0)" xlink:href="#K"/><use transform="matrix(0.05,0,0,0.05,3.95,0)" xlink:href="#L"/><use transform="matrix(0.05,0,0,0.05,18.900000000000002,0)" xlink:href="#M"/><use transform="matrix(0.05,0,0,0.05,28.900000000000002,0)" xlink:href="#N"/><use transform="matrix(0.05,0,0,0.05,38.900000000000006,0)" xlink:href="#O"/><use transform="matrix(0.05,0,0,0.05,43.900000000000006,0)" xlink:href="#P"/><use transform="matrix(0.05,0,0,0.05,48.900000000000006,0)" xlink:href="#K"/><use transform="matrix(0.05,0,0,0.05,52.85,0)" xlink:href="#P"/><use transform="matrix(0.05,0,0,0.05,57.85,0)" xlink:href="#Q"/><use transform="matrix(0.05,0,0,0.05,61.80000000000001,0)" xlink:href="#R"/></g><path d="M30-248c87 1 191-15 191 75 0 78-77 80-158 76V0H30v-248zm33 125c57 0 124 11 124-50 0-59-68-47-124-48v98" id="S"/><path d="M194 0L95-120 63-95V0H30v-248h33v124l119-124h40L117-140 236 0h-42" id="T"/><g id="b"><use transform="matrix(0.05,0,0,0.05,0,0)" xlink:href="#S"/><use transform="matrix(0.05,0,0,0.05,12,0)" xlink:href="#T"/></g><path d="M-5 72V49h209v23H-5" id="U"/><g id="c"><use transform="matrix(0.05,0,0,0.05,0,0)" xlink:href="#P"/><use transform="matrix(0.05,0,0,0.05,5,0)" xlink:href="#K"/><use transform="matrix(0.05,0,0,0.05,8.95,0)" xlink:href="#P"/><use transform="matrix(0.05,0,0,0.05,13.949999999999998,0)" xlink:href="#Q"/><use transform="matrix(0.05,0,0,0.05,17.9,0)" xlink:href="#R"/><use transform="matrix(0.05,0,0,0.05,27.899999999999995,0)" xlink:href="#U"/><use transform="matrix(0.05,0,0,0.05,37.9,0)" xlink:href="#K"/><use transform="matrix(0.05,0,0,0.05,41.85,0)" xlink:href="#M"/></g><path d="M96-169c-40 0-48 33-48 73s9 75 48 75c24 0 41-14 43-38l32 2c-6 37-31 61-74 61-59 0-76-41-82-99-10-93 101-131 147-64 4 7 5 14 7 22l-32 3c-4-21-16-35-41-35" id="V"/><path d="M106-169C34-169 62-67 57 0H25v-261h32l-1 103c12-21 28-36 61-36 89 0 53 116 60 194h-32v-121c2-32-8-49-39-48" id="W"/><path d="M141-36C126-15 110 5 73 4 37 3 15-17 15-53c-1-64 63-63 125-63 3-35-9-54-41-54-24 1-41 7-42 31l-33-3c5-37 33-52 76-52 45 0 72 20 72 64v82c-1 20 7 32 28 27v20c-31 9-61-2-59-35zM48-53c0 20 12 33 32 33 41-3 63-29 60-74-43 2-92-5-92 41" id="X"/><path d="M114-163C36-179 61-72 57 0H25l-1-190h30c1 12-1 29 2 39 6-27 23-49 58-41v29" id="Y"/><g id="d"><use transform="matrix(0.05,0,0,0.05,0,0)" xlink:href="#V"/><use transform="matrix(0.05,0,0,0.05,9,0)" xlink:href="#W"/><use transform="matrix(0.05,0,0,0.05,19,0)" xlink:href="#X"/><use transform="matrix(0.05,0,0,0.05,29,0)" xlink:href="#Y"/><use transform="matrix(0.05,0,0,0.05,34.95,0)" xlink:href="#X"/><use transform="matrix(0.05,0,0,0.05,44.95,0)" xlink:href="#V"/><use transform="matrix(0.05,0,0,0.05,53.95,0)" xlink:href="#P"/><use transform="matrix(0.05,0,0,0.05,58.95,0)" xlink:href="#R"/><use transform="matrix(0.05,0,0,0.05,68.95,0)" xlink:href="#Y"/></g><path d="M108 0H70L1-190h34L89-25l56-165h34" id="Z"/><path d="M179-190L93 31C79 59 56 82 12 73V49c39 6 53-20 64-50L1-190h34L92-34l54-156h33" id="aa"/><path d="M117-194c89-4 53 116 60 194h-32v-121c0-31-8-49-39-48C34-167 62-67 57 0H25l-1-190h30c1 10-1 24 2 32 11-22 29-35 61-36" id="ab"/><path d="M177-190C167-65 218 103 67 71c-23-6-38-20-44-43l32-5c15 47 100 32 89-28v-30C133-14 115 1 83 1 29 1 15-40 15-95c0-56 16-97 71-98 29-1 48 16 59 35 1-10 0-23 2-32h30zM94-22c36 0 50-32 50-73 0-42-14-75-50-75-39 0-46 34-46 75s6 73 46 73" id="ac"/><path d="M87 75C49 33 22-17 22-94c0-76 28-126 65-167h31c-38 41-64 92-64 168S80 34 118 75H87" id="ad"/><path d="M101-251c82-7 93 87 43 132L82-64C71-53 59-42 53-27h129V0H18c2-99 128-94 128-182 0-28-16-43-45-43s-46 15-49 41l-32-3c6-41 34-60 81-64" id="ae"/><path d="M54-142c48-35 137-8 131 61C196 18 31 33 14-55l32-4c7 23 22 37 52 37 35-1 51-22 54-58 4-55-73-65-99-34H22l8-134h141v27H59" id="af"/><path d="M33-261c38 41 65 92 65 168S71 34 33 75H2C39 34 66-17 66-93S39-220 2-261h31" id="ag"/><g id="e"><use transform="matrix(0.05,0,0,0.05,0,0)" xlink:href="#Z"/><use transform="matrix(0.05,0,0,0.05,9,0)" xlink:href="#X"/><use transform="matrix(0.05,0,0,0.05,19,0)" xlink:href="#Y"/><use transform="matrix(0.05,0,0,0.05,24.95,0)" xlink:href="#aa"/><use transform="matrix(0.05,0,0,0.05,33.95,0)" xlink:href="#K"/><use transform="matrix(0.05,0,0,0.05,37.900000000000006,0)" xlink:href="#ab"/><use transform="matrix(0.05,0,0,0.05,47.900000000000006,0)" xlink:href="#ac"/><use transform="matrix(0.05,0,0,0.05,57.900000000000006,0)" xlink:href="#ad"/><use transform="matrix(0.05,0,0,0.05,63.85,0)" xlink:href="#ae"/><use transform="matrix(0.05,0,0,0.05,73.85000000000001,0)" xlink:href="#af"/><use transform="matrix(0.05,0,0,0.05,83.85000000000001,0)" xlink:href="#ag"/></g><path d="M63-220v92h138v28H63V0H30v-248h175v28H63" id="ah"/><g id="f"><use transform="matrix(0.05,0,0,0.05,0,0)" xlink:href="#ah"/><use transform="matrix(0.05,0,0,0.05,10.950000000000001,0)" xlink:href="#T"/></g><path d="M115-194c55 1 70 41 70 98S169 2 115 4C84 4 66-9 55-30l1 105H24l-1-265h31l2 30c10-21 28-34 59-34zm-8 174c40 0 45-34 45-75s-6-73-45-74c-42 0-51 32-51 76 0 43 10 73 51 73" id="ai"/><g id="g"><use transform="matrix(0.05,0,0,0.05,0,0)" xlink:href="#P"/><use transform="matrix(0.05,0,0,0.05,5,0)" xlink:href="#K"/><use transform="matrix(0.05,0,0,0.05,8.95,0)" xlink:href="#P"/><use transform="matrix(0.05,0,0,0.05,13.949999999999998,0)" xlink:href="#Q"/><use transform="matrix(0.05,0,0,0.05,17.9,0)" xlink:href="#R"/><use transform="matrix(0.05,0,0,0.05,27.899999999999995,0)" xlink:href="#U"/><use transform="matrix(0.05,0,0,0.05,37.9,0)" xlink:href="#P"/><use transform="matrix(0.05,0,0,0.05,42.9,0)" xlink:href="#aa"/><use transform="matrix(0.05,0,0,0.05,51.900000000000006,0)" xlink:href="#ai"/><use transform="matrix(0.05,0,0,0.05,61.900000000000006,0)" xlink:href="#R"/><use transform="matrix(0.05,0,0,0.05,71.9,0)" xlink:href="#U"/><use transform="matrix(0.05,0,0,0.05,81.9,0)" xlink:href="#K"/><use transform="matrix(0.05,0,0,0.05,85.85000000000001,0)" xlink:href="#M"/></g><g id="h"><use transform="matrix(0.05,0,0,0.05,0,0)" xlink:href="#K"/><use transform="matrix(0.05,0,0,0.05,3.95,0)" xlink:href="#ab"/><use transform="matrix(0.05,0,0,0.05,13.949999999999998,0)" xlink:href="#P"/><use transform="matrix(0.05,0,0,0.05,18.95,0)" xlink:href="#R"/><use transform="matrix(0.05,0,0,0.05,28.950000000000003,0)" xlink:href="#ac"/><use transform="matrix(0.05,0,0,0.05,38.95,0)" xlink:href="#R"/><use transform="matrix(0.05,0,0,0.05,48.95,0)" xlink:href="#Y"/></g><g id="i"><use transform="matrix(0.05,0,0,0.05,0,0)" xlink:href="#P"/><use transform="matrix(0.05,0,0,0.05,5,0)" xlink:href="#K"/><use transform="matrix(0.05,0,0,0.05,8.95,0)" xlink:href="#P"/><use transform="matrix(0.05,0,0,0.05,13.949999999999998,0)" xlink:href="#Q"/><use transform="matrix(0.05,0,0,0.05,17.9,0)" xlink:href="#R"/></g><g id="j"><use transform="matrix(0.05,0,0,0.05,0,0)" xlink:href="#Z"/><use transform="matrix(0.05,0,0,0.05,9,0)" xlink:href="#X"/><use transform="matrix(0.05,0,0,0.05,19,0)" xlink:href="#Y"/><use transform="matrix(0.05,0,0,0.05,24.95,0)" xlink:href="#aa"/><use transform="matrix(0.05,0,0,0.05,33.95,0)" xlink:href="#K"/><use transform="matrix(0.05,0,0,0.05,37.900000000000006,0)" xlink:href="#ab"/><use transform="matrix(0.05,0,0,0.05,47.900000000000006,0)" xlink:href="#ac"/><use transform="matrix(0.05,0,0,0.05,57.900000000000006,0)" xlink:href="#ad"/><use transform="matrix(0.05,0,0,0.05,63.85,0)" xlink:href="#ae"/><use transform="matrix(0.05,0,0,0.05,73.85000000000001,0)" xlink:href="#af"/><use transform="matrix(0.05,0,0,0.05,83.85000000000001,0)" xlink:href="#af"/><use transform="matrix(0.05,0,0,0.05,93.85000000000001,0)" xlink:href="#ag"/></g><path d="M135-143c-3-34-86-38-87 0 15 53 115 12 119 90S17 21 10-45l28-5c4 36 97 45 98 0-10-56-113-15-118-90-4-57 82-63 122-42 12 7 21 19 24 35" id="aj"/><g id="k"><use transform="matrix(0.05,0,0,0.05,0,0)" xlink:href="#aj"/><use transform="matrix(0.05,0,0,0.05,9,0)" xlink:href="#P"/><use transform="matrix(0.05,0,0,0.05,14,0)" xlink:href="#X"/><use transform="matrix(0.05,0,0,0.05,24,0)" xlink:href="#Y"/><use transform="matrix(0.05,0,0,0.05,29.950000000000003,0)" xlink:href="#P"/><use transform="matrix(0.05,0,0,0.05,34.95,0)" xlink:href="#U"/><use transform="matrix(0.05,0,0,0.05,44.95,0)" xlink:href="#aa"/><use transform="matrix(0.05,0,0,0.05,53.95,0)" xlink:href="#R"/><use transform="matrix(0.05,0,0,0.05,63.95,0)" xlink:href="#X"/><use transform="matrix(0.05,0,0,0.05,73.95,0)" xlink:href="#Y"/></g><g id="l"><use transform="matrix(0.05,0,0,0.05,0,0)" xlink:href="#R"/><use transform="matrix(0.05,0,0,0.05,10,0)" xlink:href="#ab"/><use transform="matrix(0.05,0,0,0.05,20,0)" xlink:href="#M"/><use transform="matrix(0.05,0,0,0.05,30,0)" xlink:href="#U"/><use transform="matrix(0.05,0,0,0.05,40,0)" xlink:href="#aa"/><use transform="matrix(0.05,0,0,0.05,49,0)" xlink:href="#R"/><use transform="matrix(0.05,0,0,0.05,59,0)" xlink:href="#X"/><use transform="matrix(0.05,0,0,0.05,69,0)" xlink:href="#Y"/></g><path d="M84 4C-5 8 30-112 23-190h32v120c0 31 7 50 39 49 72-2 45-101 50-169h31l1 190h-30c-1-10 1-25-2-33-11 22-28 36-60 37" id="ak"/><g id="m"><use transform="matrix(0.05,0,0,0.05,0,0)" xlink:href="#Y"/><use transform="matrix(0.05,0,0,0.05,5.95,0)" xlink:href="#ak"/><use transform="matrix(0.05,0,0,0.05,15.949999999999998,0)" xlink:href="#ab"/><use transform="matrix(0.05,0,0,0.05,25.950000000000003,0)" xlink:href="#P"/><use transform="matrix(0.05,0,0,0.05,30.950000000000003,0)" xlink:href="#K"/><use transform="matrix(0.05,0,0,0.05,34.9,0)" xlink:href="#L"/><use transform="matrix(0.05,0,0,0.05,49.85,0)" xlink:href="#R"/><use transform="matrix(0.05,0,0,0.05,59.85,0)" xlink:href="#U"/><use transform="matrix(0.05,0,0,0.05,69.85,0)" xlink:href="#L"/><use transform="matrix(0.05,0,0,0.05,84.8,0)" xlink:href="#K"/><use transform="matrix(0.05,0,0,0.05,88.75,0)" xlink:href="#ab"/><use transform="matrix(0.05,0,0,0.05,98.75,0)" xlink:href="#ak"/><use transform="matrix(0.05,0,0,0.05,108.75,0)" xlink:href="#P"/><use transform="matrix(0.05,0,0,0.05,113.75,0)" xlink:href="#R"/><use transform="matrix(0.05,0,0,0.05,123.75,0)" xlink:href="#aj"/></g><g id="n"><use transform="matrix(0.05,0,0,0.05,0,0)" xlink:href="#K"/><use transform="matrix(0.05,0,0,0.05,3.95,0)" xlink:href="#L"/><use transform="matrix(0.05,0,0,0.05,18.900000000000002,0)" xlink:href="#M"/><use transform="matrix(0.05,0,0,0.05,28.900000000000002,0)" xlink:href="#N"/><use transform="matrix(0.05,0,0,0.05,38.900000000000006,0)" xlink:href="#O"/><use transform="matrix(0.05,0,0,0.05,43.900000000000006,0)" xlink:href="#ac"/><use transform="matrix(0.05,0,0,0.05,53.900000000000006,0)" xlink:href="#R"/><use transform="matrix(0.05,0,0,0.05,63.900000000000006,0)" xlink:href="#ab"/><use transform="matrix(0.05,0,0,0.05,73.9,0)" xlink:href="#Y"/><use transform="matrix(0.05,0,0,0.05,79.85000000000001,0)" xlink:href="#R"/></g><g id="o"><use transform="matrix(0.05,0,0,0.05,0,0)" xlink:href="#ac"/><use transform="matrix(0.05,0,0,0.05,10,0)" xlink:href="#R"/><use transform="matrix(0.05,0,0,0.05,20,0)" xlink:href="#ab"/><use transform="matrix(0.05,0,0,0.05,30,0)" xlink:href="#Y"/><use transform="matrix(0.05,0,0,0.05,35.95,0)" xlink:href="#R"/><use transform="matrix(0.05,0,0,0.05,45.95,0)" xlink:href="#U"/><use transform="matrix(0.05,0,0,0.05,55.95,0)" xlink:href="#K"/><use transform="matrix(0.05,0,0,0.05,59.900000000000006,0)" xlink:href="#M"/></g><g id="p"><use transform="matrix(0.05,0,0,0.05,0,0)" xlink:href="#ac"/><use transform="matrix(0.05,0,0,0.05,10,0)" xlink:href="#R"/><use transform="matrix(0.05,0,0,0.05,20,0)" xlink:href="#ab"/><use transform="matrix(0.05,0,0,0.05,30,0)" xlink:href="#Y"/><use transform="matrix(0.05,0,0,0.05,35.95,0)" xlink:href="#R"/><use transform="matrix(0.05,0,0,0.05,45.95,0)" xlink:href="#U"/><use transform="matrix(0.05,0,0,0.05,55.95,0)" xlink:href="#ab"/><use transform="matrix(0.05,0,0,0.05,65.95,0)" xlink:href="#X"/><use transform="matrix(0.05,0,0,0.05,75.95,0)" xlink:href="#L"/><use transform="matrix(0.05,0,0,0.05,90.9,0)" xlink:href="#R"/></g><g id="q"><use transform="matrix(0.05,0,0,0.05,0,0)" xlink:href="#K"/><use transform="matrix(0.05,0,0,0.05,3.95,0)" xlink:href="#L"/><use transform="matrix(0.05,0,0,0.05,18.900000000000002,0)" xlink:href="#M"/><use transform="matrix(0.05,0,0,0.05,28.900000000000002,0)" xlink:href="#N"/><use transform="matrix(0.05,0,0,0.05,38.900000000000006,0)" xlink:href="#O"/><use transform="matrix(0.05,0,0,0.05,43.900000000000006,0)" xlink:href="#P"/><use transform="matrix(0.05,0,0,0.05,48.900000000000006,0)" xlink:href="#K"/><use transform="matrix(0.05,0,0,0.05,52.85,0)" xlink:href="#P"/><use transform="matrix(0.05,0,0,0.05,57.85,0)" xlink:href="#Q"/><use transform="matrix(0.05,0,0,0.05,61.80000000000001,0)" xlink:href="#R"/><use transform="matrix(0.05,0,0,0.05,71.80000000000001,0)" xlink:href="#U"/><use transform="matrix(0.05,0,0,0.05,81.80000000000001,0)" xlink:href="#ac"/><use transform="matrix(0.05,0,0,0.05,91.80000000000001,0)" xlink:href="#R"/><use transform="matrix(0.05,0,0,0.05,101.80000000000001,0)" xlink:href="#ab"/><use transform="matrix(0.05,0,0,0.05,111.80000000000001,0)" xlink:href="#Y"/><use transform="matrix(0.05,0,0,0.05,117.75,0)" xlink:href="#R"/></g><path d="M68-38c1 34 0 65-14 84H32c9-13 17-26 17-46H33v-38h35" id="al"/><g id="r"><use transform="matrix(0.05,0,0,0.05,0,0)" xlink:href="#S"/><use transform="matrix(0.05,0,0,0.05,12,0)" xlink:href="#T"/><use transform="matrix(0.05,0,0,0.05,24,0)" xlink:href="#al"/><use transform="matrix(0.05,0,0,0.05,29,0)" xlink:href="#ah"/><use transform="matrix(0.05,0,0,0.05,39.95,0)" xlink:href="#T"/></g><g id="s"><use transform="matrix(0.05,0,0,0.05,0,0)" xlink:href="#K"/><use transform="matrix(0.05,0,0,0.05,3.95,0)" xlink:href="#L"/><use transform="matrix(0.05,0,0,0.05,18.900000000000002,0)" xlink:href="#M"/><use transform="matrix(0.05,0,0,0.05,28.900000000000002,0)" xlink:href="#N"/><use transform="matrix(0.05,0,0,0.05,38.900000000000006,0)" xlink:href="#O"/><use transform="matrix(0.05,0,0,0.05,43.900000000000006,0)" xlink:href="#P"/><use transform="matrix(0.05,0,0,0.05,48.900000000000006,0)" xlink:href="#K"/><use transform="matrix(0.05,0,0,0.05,52.85,0)" xlink:href="#P"/><use transform="matrix(0.05,0,0,0.05,57.85,0)" xlink:href="#Q"/><use transform="matrix(0.05,0,0,0.05,61.80000000000001,0)" xlink:href="#R"/><use transform="matrix(0.05,0,0,0.05,71.80000000000001,0)" xlink:href="#U"/><use transform="matrix(0.05,0,0,0.05,81.80000000000001,0)" xlink:href="#P"/><use transform="matrix(0.05,0,0,0.05,86.80000000000001,0)" xlink:href="#aa"/><use transform="matrix(0.05,0,0,0.05,95.80000000000001,0)" xlink:href="#ai"/><use transform="matrix(0.05,0,0,0.05,105.80000000000001,0)" xlink:href="#R"/></g><g id="t"><use transform="matrix(0.05,0,0,0.05,0,0)" xlink:href="#P"/><use transform="matrix(0.05,0,0,0.05,5,0)" xlink:href="#K"/><use transform="matrix(0.05,0,0,0.05,8.95,0)" xlink:href="#P"/><use transform="matrix(0.05,0,0,0.05,13.949999999999998,0)" xlink:href="#Q"/><use transform="matrix(0.05,0,0,0.05,17.9,0)" xlink:href="#R"/><use transform="matrix(0.05,0,0,0.05,27.899999999999995,0)" xlink:href="#U"/><use transform="matrix(0.05,0,0,0.05,37.9,0)" xlink:href="#P"/><use transform="matrix(0.05,0,0,0.05,42.9,0)" xlink:href="#aa"/><use transform="matrix(0.05,0,0,0.05,51.900000000000006,0)" xlink:href="#ai"/><use transform="matrix(0.05,0,0,0.05,61.900000000000006,0)" xlink:href="#R"/><use transform="matrix(0.05,0,0,0.05,71.9,0)" xlink:href="#U"/><use transform="matrix(0.05,0,0,0.05,81.9,0)" xlink:href="#ab"/><use transform="matrix(0.05,0,0,0.05,91.9,0)" xlink:href="#X"/><use transform="matrix(0.05,0,0,0.05,101.9,0)" xlink:href="#L"/><use transform="matrix(0.05,0,0,0.05,116.85000000000001,0)" xlink:href="#R"/></g><path d="M100-194c62-1 85 37 85 99 1 63-27 99-86 99S16-35 15-95c0-66 28-99 85-99zM99-20c44 1 53-31 53-75 0-43-8-75-51-75s-53 32-53 75 10 74 51 75" id="am"/><g id="u"><use transform="matrix(0.05,0,0,0.05,0,0)" xlink:href="#K"/><use transform="matrix(0.05,0,0,0.05,3.95,0)" xlink:href="#L"/><use transform="matrix(0.05,0,0,0.05,18.900000000000002,0)" xlink:href="#M"/><use transform="matrix(0.05,0,0,0.05,28.900000000000002,0)" xlink:href="#N"/><use transform="matrix(0.05,0,0,0.05,38.900000000000006,0)" xlink:href="#O"/><use transform="matrix(0.05,0,0,0.05,43.900000000000006,0)" xlink:href="#R"/><use transform="matrix(0.05,0,0,0.05,53.900000000000006,0)" xlink:href="#ai"/><use transform="matrix(0.05,0,0,0.05,63.900000000000006,0)" xlink:href="#K"/><use transform="matrix(0.05,0,0,0.05,67.85000000000001,0)" xlink:href="#aj"/><use transform="matrix(0.05,0,0,0.05,76.85000000000001,0)" xlink:href="#am"/><use transform="matrix(0.05,0,0,0.05,86.85000000000001,0)" xlink:href="#M"/><use transform="matrix(0.05,0,0,0.05,96.85000000000001,0)" xlink:href="#R"/></g><g id="v"><use transform="matrix(0.05,0,0,0.05,0,0)" xlink:href="#R"/><use transform="matrix(0.05,0,0,0.05,10,0)" xlink:href="#ai"/><use transform="matrix(0.05,0,0,0.05,20,0)" xlink:href="#K"/><use transform="matrix(0.05,0,0,0.05,23.95,0)" xlink:href="#aj"/><use transform="matrix(0.05,0,0,0.05,32.95,0)" xlink:href="#am"/><use transform="matrix(0.05,0,0,0.05,42.95,0)" xlink:href="#M"/><use transform="matrix(0.05,0,0,0.05,52.95,0)" xlink:href="#R"/><use transform="matrix(0.05,0,0,0.05,62.95,0)" xlink:href="#U"/><use transform="matrix(0.05,0,0,0.05,72.95,0)" xlink:href="#P"/><use transform="matrix(0.05,0,0,0.05,77.95,0)" xlink:href="#K"/><use transform="matrix(0.05,0,0,0.05,81.9,0)" xlink:href="#P"/><use transform="matrix(0.05,0,0,0.05,86.9,0)" xlink:href="#Q"/><use transform="matrix(0.05,0,0,0.05,90.85000000000001,0)" xlink:href="#R"/><use transform="matrix(0.05,0,0,0.05,100.85000000000001,0)" xlink:href="#U"/><use transform="matrix(0.05,0,0,0.05,110.85000000000001,0)" xlink:href="#K"/><use transform="matrix(0.05,0,0,0.05,114.80000000000001,0)" xlink:href="#M"/></g><g id="w"><use transform="matrix(0.05,0,0,0.05,0,0)" xlink:href="#aj"/><use transform="matrix(0.05,0,0,0.05,9,0)" xlink:href="#R"/><use transform="matrix(0.05,0,0,0.05,19,0)" xlink:href="#Y"/><use transform="matrix(0.05,0,0,0.05,24.95,0)" xlink:href="#K"/><use transform="matrix(0.05,0,0,0.05,28.899999999999995,0)" xlink:href="#R"/><use transform="matrix(0.05,0,0,0.05,38.9,0)" xlink:href="#aj"/><use transform="matrix(0.05,0,0,0.05,47.9,0)" xlink:href="#U"/><use transform="matrix(0.05,0,0,0.05,57.900000000000006,0)" xlink:href="#P"/><use transform="matrix(0.05,0,0,0.05,62.900000000000006,0)" xlink:href="#K"/><use transform="matrix(0.05,0,0,0.05,66.85,0)" xlink:href="#P"/><use transform="matrix(0.05,0,0,0.05,71.85,0)" xlink:href="#Q"/><use transform="matrix(0.05,0,0,0.05,75.8,0)" xlink:href="#R"/><use transform="matrix(0.05,0,0,0.05,85.8,0)" xlink:href="#U"/><use transform="matrix(0.05,0,0,0.05,95.8,0)" xlink:href="#K"/><use transform="matrix(0.05,0,0,0.05,99.75,0)" xlink:href="#M"/></g><g id="x"><use transform="matrix(0.05,0,0,0.05,0,0)" xlink:href="#aj"/><use transform="matrix(0.05,0,0,0.05,9,0)" xlink:href="#R"/><use transform="matrix(0.05,0,0,0.05,19,0)" xlink:href="#X"/><use transform="matrix(0.05,0,0,0.05,29,0)" xlink:href="#aj"/><use transform="matrix(0.05,0,0,0.05,38,0)" xlink:href="#am"/><use transform="matrix(0.05,0,0,0.05,48,0)" xlink:href="#ab"/><use transform="matrix(0.05,0,0,0.05,58,0)" xlink:href="#U"/><use transform="matrix(0.05,0,0,0.05,68,0)" xlink:href="#ab"/><use transform="matrix(0.05,0,0,0.05,78,0)" xlink:href="#ak"/><use transform="matrix(0.05,0,0,0.05,88,0)" xlink:href="#L"/><use transform="matrix(0.05,0,0,0.05,102.95,0)" xlink:href="#N"/><use transform="matrix(0.05,0,0,0.05,112.95,0)" xlink:href="#R"/><use transform="matrix(0.05,0,0,0.05,122.95,0)" xlink:href="#Y"/></g><g id="y"><use transform="matrix(0.05,0,0,0.05,0,0)" xlink:href="#R"/><use transform="matrix(0.05,0,0,0.05,10,0)" xlink:href="#ai"/><use transform="matrix(0.05,0,0,0.05,20,0)" xlink:href="#K"/><use transform="matrix(0.05,0,0,0.05,23.95,0)" xlink:href="#aj"/><use transform="matrix(0.05,0,0,0.05,32.95,0)" xlink:href="#am"/><use transform="matrix(0.05,0,0,0.05,42.95,0)" xlink:href="#M"/><use transform="matrix(0.05,0,0,0.05,52.95,0)" xlink:href="#R"/><use transform="matrix(0.05,0,0,0.05,62.95,0)" xlink:href="#U"/><use transform="matrix(0.05,0,0,0.05,72.95,0)" xlink:href="#ab"/><use transform="matrix(0.05,0,0,0.05,82.95,0)" xlink:href="#ak"/><use transform="matrix(0.05,0,0,0.05,92.95,0)" xlink:href="#L"/><use transform="matrix(0.05,0,0,0.05,107.9,0)" xlink:href="#N"/><use transform="matrix(0.05,0,0,0.05,117.9,0)" xlink:href="#R"/><use transform="matrix(0.05,0,0,0.05,127.9,0)" xlink:href="#Y"/></g><g id="z"><use transform="matrix(0.05,0,0,0.05,0,0)" xlink:href="#K"/><use transform="matrix(0.05,0,0,0.05,3.95,0)" xlink:href="#L"/><use transform="matrix(0.05,0,0,0.05,18.900000000000002,0)" xlink:href="#M"/><use transform="matrix(0.05,0,0,0.05,28.900000000000002,0)" xlink:href="#N"/><use transform="matrix(0.05,0,0,0.05,38.900000000000006,0)" xlink:href="#O"/><use transform="matrix(0.05,0,0,0.05,43.900000000000006,0)" xlink:href="#ai"/><use transform="matrix(0.05,0,0,0.05,53.900000000000006,0)" xlink:href="#Y"/><use transform="matrix(0.05,0,0,0.05,59.85,0)" xlink:href="#K"/><use transform="matrix(0.05,0,0,0.05,63.80000000000001,0)" xlink:href="#ab"/><use transform="matrix(0.05,0,0,0.05,73.80000000000001,0)" xlink:href="#V"/><use transform="matrix(0.05,0,0,0.05,82.80000000000001,0)" xlink:href="#K"/><use transform="matrix(0.05,0,0,0.05,86.75000000000001,0)" xlink:href="#ai"/><use transform="matrix(0.05,0,0,0.05,96.75000000000001,0)" xlink:href="#Q"/><use transform="matrix(0.05,0,0,0.05,100.70000000000002,0)" xlink:href="#R"/></g><g id="A"><use transform="matrix(0.05,0,0,0.05,0,0)" xlink:href="#ai"/><use transform="matrix(0.05,0,0,0.05,10,0)" xlink:href="#R"/><use transform="matrix(0.05,0,0,0.05,20,0)" xlink:href="#Y"/><use transform="matrix(0.05,0,0,0.05,25.950000000000003,0)" xlink:href="#aj"/><use transform="matrix(0.05,0,0,0.05,34.95,0)" xlink:href="#am"/><use transform="matrix(0.05,0,0,0.05,44.95,0)" xlink:href="#ab"/><use transform="matrix(0.05,0,0,0.05,54.95,0)" xlink:href="#U"/><use transform="matrix(0.05,0,0,0.05,64.95,0)" xlink:href="#K"/><use transform="matrix(0.05,0,0,0.05,68.9,0)" xlink:href="#M"/></g><g id="B"><use transform="matrix(0.05,0,0,0.05,0,0)" xlink:href="#V"/><use transform="matrix(0.05,0,0,0.05,9,0)" xlink:href="#X"/><use transform="matrix(0.05,0,0,0.05,19,0)" xlink:href="#P"/><use transform="matrix(0.05,0,0,0.05,24,0)" xlink:href="#R"/><use transform="matrix(0.05,0,0,0.05,34,0)" xlink:href="#ac"/><use transform="matrix(0.05,0,0,0.05,44,0)" xlink:href="#am"/><use transform="matrix(0.05,0,0,0.05,54,0)" xlink:href="#Y"/><use transform="matrix(0.05,0,0,0.05,59.95,0)" xlink:href="#aa"/><use transform="matrix(0.05,0,0,0.05,68.95,0)" xlink:href="#U"/><use transform="matrix(0.05,0,0,0.05,78.95,0)" xlink:href="#K"/><use transform="matrix(0.05,0,0,0.05,82.9,0)" xlink:href="#M"/></g><g id="C"><use transform="matrix(0.05,0,0,0.05,0,0)" xlink:href="#K"/><use transform="matrix(0.05,0,0,0.05,3.95,0)" xlink:href="#L"/><use transform="matrix(0.05,0,0,0.05,18.900000000000002,0)" xlink:href="#M"/><use transform="matrix(0.05,0,0,0.05,28.900000000000002,0)" xlink:href="#N"/><use transform="matrix(0.05,0,0,0.05,38.900000000000006,0)" xlink:href="#O"/><use transform="matrix(0.05,0,0,0.05,43.900000000000006,0)" xlink:href="#ai"/><use transform="matrix(0.05,0,0,0.05,53.900000000000006,0)" xlink:href="#R"/><use transform="matrix(0.05,0,0,0.05,63.900000000000006,0)" xlink:href="#Y"/><use transform="matrix(0.05,0,0,0.05,69.85000000000001,0)" xlink:href="#aj"/><use transform="matrix(0.05,0,0,0.05,78.85000000000001,0)" xlink:href="#am"/><use transform="matrix(0.05,0,0,0.05,88.85000000000001,0)" xlink:href="#ab"/></g><g id="D"><use transform="matrix(0.05,0,0,0.05,0,0)" xlink:href="#ai"/><use transform="matrix(0.05,0,0,0.05,10,0)" xlink:href="#R"/><use transform="matrix(0.05,0,0,0.05,20,0)" xlink:href="#Y"/><use transform="matrix(0.05,0,0,0.05,25.950000000000003,0)" xlink:href="#aj"/><use transform="matrix(0.05,0,0,0.05,34.95,0)" xlink:href="#am"/><use transform="matrix(0.05,0,0,0.05,44.95,0)" xlink:href="#ab"/><use transform="matrix(0.05,0,0,0.05,54.95,0)" xlink:href="#U"/><use transform="matrix(0.05,0,0,0.05,64.95,0)" xlink:href="#ab"/><use transform="matrix(0.05,0,0,0.05,74.95,0)" xlink:href="#X"/><use transform="matrix(0.05,0,0,0.05,84.95,0)" xlink:href="#L"/><use transform="matrix(0.05,0,0,0.05,99.9,0)" xlink:href="#R"/></g><g id="E"><use transform="matrix(0.05,0,0,0.05,0,0)" xlink:href="#N"/><use transform="matrix(0.05,0,0,0.05,10,0)" xlink:href="#K"/><use transform="matrix(0.05,0,0,0.05,13.949999999999998,0)" xlink:href="#Y"/><use transform="matrix(0.05,0,0,0.05,19.9,0)" xlink:href="#P"/><use transform="matrix(0.05,0,0,0.05,24.9,0)" xlink:href="#W"/><use transform="matrix(0.05,0,0,0.05,34.9,0)" xlink:href="#U"/><use transform="matrix(0.05,0,0,0.05,44.9,0)" xlink:href="#aa"/><use transform="matrix(0.05,0,0,0.05,53.900000000000006,0)" xlink:href="#R"/><use transform="matrix(0.05,0,0,0.05,63.900000000000006,0)" xlink:href="#X"/><use transform="matrix(0.05,0,0,0.05,73.9,0)" xlink:href="#Y"/></g><g id="F"><use transform="matrix(0.05,0,0,0.05,0,0)" xlink:href="#M"/><use transform="matrix(0.05,0,0,0.05,10,0)" xlink:href="#R"/><use transform="matrix(0.05,0,0,0.05,20,0)" xlink:href="#X"/><use transform="matrix(0.05,0,0,0.05,30,0)" xlink:href="#P"/><use transform="matrix(0.05,0,0,0.05,35,0)" xlink:href="#W"/><use transform="matrix(0.05,0,0,0.05,45,0)" xlink:href="#U"/><use transform="matrix(0.05,0,0,0.05,55,0)" xlink:href="#aa"/><use transform="matrix(0.05,0,0,0.05,64,0)" xlink:href="#R"/><use transform="matrix(0.05,0,0,0.05,74,0)" xlink:href="#X"/><use transform="matrix(0.05,0,0,0.05,84,0)" xlink:href="#Y"/></g><g id="G"><use transform="matrix(0.05,0,0,0.05,0,0)" xlink:href="#K"/><use transform="matrix(0.05,0,0,0.05,3.95,0)" xlink:href="#L"/><use transform="matrix(0.05,0,0,0.05,18.900000000000002,0)" xlink:href="#M"/><use transform="matrix(0.05,0,0,0.05,28.900000000000002,0)" xlink:href="#N"/><use transform="matrix(0.05,0,0,0.05,38.900000000000006,0)" xlink:href="#O"/><use transform="matrix(0.05,0,0,0.05,43.900000000000006,0)" xlink:href="#ai"/><use transform="matrix(0.05,0,0,0.05,53.900000000000006,0)" xlink:href="#Y"/><use transform="matrix(0.05,0,0,0.05,59.85,0)" xlink:href="#K"/><use transform="matrix(0.05,0,0,0.05,63.80000000000001,0)" xlink:href="#ab"/><use transform="matrix(0.05,0,0,0.05,73.80000000000001,0)" xlink:href="#V"/><use transform="matrix(0.05,0,0,0.05,82.80000000000001,0)" xlink:href="#K"/><use transform="matrix(0.05,0,0,0.05,86.75000000000001,0)" xlink:href="#ai"/><use transform="matrix(0.05,0,0,0.05,96.75000000000001,0)" xlink:href="#Q"/><use transform="matrix(0.05,0,0,0.05,100.70000000000002,0)" xlink:href="#R"/><use transform="matrix(0.05,0,0,0.05,110.7,0)" xlink:href="#U"/><use transform="matrix(0.05,0,0,0.05,120.7,0)" xlink:href="#V"/><use transform="matrix(0.05,0,0,0.05,129.70000000000002,0)" xlink:href="#X"/><use transform="matrix(0.05,0,0,0.05,139.70000000000002,0)" xlink:href="#P"/><use transform="matrix(0.05,0,0,0.05,144.70000000000002,0)" xlink:href="#R"/><use transform="matrix(0.05,0,0,0.05,154.70000000000002,0)" xlink:href="#ac"/><use transform="matrix(0.05,0,0,0.05,164.70000000000002,0)" xlink:href="#am"/><use transform="matrix(0.05,0,0,0.05,174.70000000000002,0)" xlink:href="#Y"/><use transform="matrix(0.05,0,0,0.05,180.65,0)" xlink:href="#aa"/></g><g id="H"><use transform="matrix(0.05,0,0,0.05,0,0)" xlink:href="#V"/><use transform="matrix(0.05,0,0,0.05,9,0)" xlink:href="#X"/><use transform="matrix(0.05,0,0,0.05,19,0)" xlink:href="#P"/><use transform="matrix(0.05,0,0,0.05,24,0)" xlink:href="#R"/><use transform="matrix(0.05,0,0,0.05,34,0)" xlink:href="#ac"/><use transform="matrix(0.05,0,0,0.05,44,0)" xlink:href="#am"/><use transform="matrix(0.05,0,0,0.05,54,0)" xlink:href="#Y"/><use transform="matrix(0.05,0,0,0.05,59.95,0)" xlink:href="#aa"/><use transform="matrix(0.05,0,0,0.05,68.95,0)" xlink:href="#U"/><use transform="matrix(0.05,0,0,0.05,78.95,0)" xlink:href="#ab"/><use transform="matrix(0.05,0,0,0.05,88.95,0)" xlink:href="#X"/><use transform="matrix(0.05,0,0,0.05,98.95,0)" xlink:href="#L"/><use transform="matrix(0.05,0,0,0.05,113.9,0)" xlink:href="#R"/></g><g id="I"><use transform="matrix(0.05,0,0,0.05,0,0)" xlink:href="#K"/><use transform="matrix(0.05,0,0,0.05,3.95,0)" xlink:href="#L"/><use transform="matrix(0.05,0,0,0.05,18.900000000000002,0)" xlink:href="#M"/><use transform="matrix(0.05,0,0,0.05,28.900000000000002,0)" xlink:href="#N"/><use transform="matrix(0.05,0,0,0.05,38.900000000000006,0)" xlink:href="#O"/><use transform="matrix(0.05,0,0,0.05,43.900000000000006,0)" xlink:href="#V"/><use transform="matrix(0.05,0,0,0.05,52.900000000000006,0)" xlink:href="#W"/><use transform="matrix(0.05,0,0,0.05,62.900000000000006,0)" xlink:href="#X"/><use transform="matrix(0.05,0,0,0.05,72.9,0)" xlink:href="#Y"/><use transform="matrix(0.05,0,0,0.05,78.85000000000001,0)" xlink:href="#X"/><use transform="matrix(0.05,0,0,0.05,88.85000000000001,0)" xlink:href="#V"/><use transform="matrix(0.05,0,0,0.05,97.85000000000001,0)" xlink:href="#P"/><use transform="matrix(0.05,0,0,0.05,102.85000000000001,0)" xlink:href="#R"/><use transform="matrix(0.05,0,0,0.05,112.85000000000001,0)" xlink:href="#Y"/></g><g id="J"><use transform="matrix(0.05,0,0,0.05,0,0)" xlink:href="#V"/><use transform="matrix(0.05,0,0,0.05,9,0)" xlink:href="#W"/><use transform="matrix(0.05,0,0,0.05,19,0)" xlink:href="#X"/><use transform="matrix(0.05,0,0,0.05,29,0)" xlink:href="#Y"/><use transform="matrix(0.05,0,0,0.05,34.95,0)" xlink:href="#X"/><use transform="matrix(0.05,0,0,0.05,44.95,0)" xlink:href="#V"/><use transform="matrix(0.05,0,0,0.05,53.95,0)" xlink:href="#P"/><use transform="matrix(0.05,0,0,0.05,58.95,0)" xlink:href="#R"/><use transform="matrix(0.05,0,0,0.05,68.95,0)" xlink:href="#Y"/><use transform="matrix(0.05,0,0,0.05,74.9,0)" xlink:href="#U"/><use transform="matrix(0.05,0,0,0.05,84.9,0)" xlink:href="#ab"/><use transform="matrix(0.05,0,0,0.05,94.9,0)" xlink:href="#X"/><use transform="matrix(0.05,0,0,0.05,104.9,0)" xlink:href="#L"/><use transform="matrix(0.05,0,0,0.05,119.85000000000001,0)" xlink:href="#R"/></g></defs></g></svg>